# xmcd
#
# Track frame offsets:
#	150
#	12322
#	21932
#	32515
#	45067
#	55490
#	68837
#	77332
#	89885
#	104632
#	113325
#	127837
#	141362
#	155922
#
# Disc length: 2225 seconds
#
# Revision: 3
# Processed by: cddbd v1.5.2PL0 Copyright (c) Steve Scherf et al.
# Submitted via: audiograbber 1.83.01
#
DISCID=b208af0e
DTITLE=Dolly Parton - Jolene
DYEAR=1974
DGENRE=Country
TTITLE0=Jolene
TTITLE1=When Someone Wants To Leave
TTITLE2=River Of Happiness
TTITLE3=Early Morning Breeze
TTITLE4=Highlight Of My Life
TTITLE5=I Will Always Love You
TTITLE6=Randy
TTITLE7=Living On Memories Of You
TTITLE8=Lonely Comin' Down
TTITLE9=It Must Be You
TTITLE10=Cracker Jack
TTITLE11=Another Woman's Man
TTITLE12=Barbara On Your Mind
TTITLE13=Last Night's Lovin'
EXTD=
EXTT0=
EXTT1=
EXTT2=
EXTT3=
EXTT4=
EXTT5=
EXTT6=
EXTT7=
EXTT8=
EXTT9=
EXTT10=
EXTT11=
EXTT12=
EXTT13=
PLAYORDER=
